<svg width="29" height="18" viewBox="0 0 29 18" fill="none" xmlns="http://www.w3.org/2000/svg">
<path d="M12.928 6.91605V0.751127C12.928 0.173776 13.553 -0.187067 14.053 0.101608L25.862 6.91957V0.862177C25.862 0.447963 26.1978 0.112178 26.612 0.112178H27.751C28.1652 0.112178 28.501 0.447964 28.501 0.862178V16.5154C28.501 16.9296 28.1652 17.2654 27.751 17.2654H26.612C26.1978 17.2654 25.862 16.9296 25.862 16.5154V10.4573L14.053 17.2752C13.553 17.5639 12.928 17.2031 12.928 16.6257V10.4608L1.125 17.2752C0.625 17.5639 -2.5233e-08 17.203 0 16.6257L6.93908e-07 0.751119C7.19141e-07 0.173768 0.625001 -0.187075 1.125 0.1016L12.928 6.91605Z" fill="white"/>
</svg>
