<svg width="29" height="18" viewBox="0 0 29 18" fill="none" xmlns="http://www.w3.org/2000/svg">
<path d="M15.573 6.91605V0.751127C15.573 0.173776 14.948 -0.187067 14.448 0.101608L2.63893 6.91957V0.862177C2.63893 0.447963 2.30314 0.112178 1.88893 0.112178H0.749981C0.335768 0.112178 -1.90735e-05 0.447964 -1.90735e-05 0.862178V16.5154C-1.90735e-05 16.9296 0.335768 17.2654 0.749981 17.2654H1.88893C2.30314 17.2654 2.63893 16.9296 2.63893 16.5154V10.4573L14.448 17.2752C14.948 17.5639 15.573 17.2031 15.573 16.6257V10.4608L27.376 17.2752C27.876 17.5639 28.501 17.203 28.501 16.6257L28.501 0.751119C28.501 0.173768 27.876 -0.187075 27.376 0.1016L15.573 6.91605Z" fill="white"/>
</svg>
